<?xml version="1.0" standalone="no"?>
<!DOCTYPE svg PUBLIC "-//W3C//DTD SVG 20010904//EN"
 "http://www.w3.org/TR/2001/REC-SVG-20010904/DTD/svg10.dtd">
<svg version="1.0" xmlns="http://www.w3.org/2000/svg"
 width="144.000000pt" height="144.000000pt" viewBox="0 0 144.000000 144.000000"
 preserveAspectRatio="xMidYMid meet">
<metadata>
Created by potrace 1.11, written by Peter Selinger 2001-2013
</metadata>
<g transform="translate(0.000000,144.000000) scale(0.100000,-0.100000)"
fill="#000000" stroke="none">
<path d="M841 1091 c-17 -16 -32 -37 -32 -48 -4 -52 3 -80 29 -104 22 -20 36
-25 77 -24 62 1 93 18 109 57 32 75 -19 148 -105 148 -38 0 -53 -5 -78 -29z"/>
<path d="M189 1067 c-18 -5 -43 -15 -56 -24 -26 -17 -66 -87 -56 -97 4 -3 0
-6 -8 -6 -11 0 -11 -2 1 -10 10 -6 11 -10 3 -10 -7 0 -12 -6 -10 -12 1 -8 -9
-13 -28 -13 l-30 -1 -3 -69 c-2 -38 0 -66 3 -63 4 4 19 2 33 -3 l27 -9 0 -213
0 -212 108 -3 c73 -2 107 1 102 8 -3 5 -2 10 4 10 7 0 7 8 2 23 -5 12 -5 32 0
45 5 12 5 22 1 22 -9 0 -7 82 2 106 3 8 2 14 -2 14 -4 0 -7 16 -7 35 0 19 4
35 8 35 5 0 6 4 2 9 -9 15 -10 105 -2 119 5 6 21 12 38 12 16 0 30 3 30 8 1 4
3 21 4 37 2 17 4 30 5 30 1 0 3 7 5 16 5 26 -10 41 -44 42 -17 1 -31 5 -31 10
0 4 0 11 0 16 0 11 39 26 58 23 11 -3 18 32 13 68 -1 8 -3 26 -3 40 -2 24 -4
25 -70 25 -37 0 -82 -4 -99 -8z"/>
<path d="M1266 1033 c-2 -2 -29 -6 -61 -8 -72 -7 -77 -10 -71 -45 2 -17 -1
-31 -7 -34 -8 -3 -7 -5 2 -5 11 -1 11 -4 1 -16 -10 -12 -10 -15 0 -15 25 0 0
-13 -37 -19 l-37 -6 0 -55 c-1 -61 15 -85 47 -69 17 10 19 7 32 -37 2 -6 -2
-17 -8 -23 -7 -7 -7 -11 -1 -11 12 0 12 -29 1 -47 -4 -6 -3 -15 3 -18 8 -5 7
-11 -1 -21 -6 -8 -7 -14 -2 -14 11 0 11 -29 -1 -48 -4 -6 -4 -12 1 -12 10 0 9
-133 -1 -149 -4 -6 -3 -11 2 -11 5 0 8 -10 8 -22 -1 -22 2 -23 104 -23 l105 0
1 207 c1 114 4 214 8 223 4 12 10 14 24 6 33 -17 53 8 59 72 5 62 6 62 -59 57
-17 -1 -28 4 -29 12 0 7 -1 40 -2 73 l-2 60 -38 0 c-21 0 -40 -1 -41 -2z"/>
<path d="M473 889 c-22 -8 -23 -14 -23 -110 0 -85 2 -100 15 -96 8 4 16 3 19
-1 5 -9 165 -7 174 3 11 11 9 197 -2 201 -23 9 -108 9 -113 1 -3 -5 -9 -3 -14
4 -8 12 -10 12 -18 0 -5 -7 -10 -9 -12 -3 -3 6 -13 6 -26 1z"/>
<path d="M810 889 c0 -5 -4 -8 -9 -5 -5 3 -11 -12 -13 -34 -2 -22 -1 -40 3
-40 3 0 3 -18 -1 -40 -4 -22 -4 -40 0 -40 4 0 4 -18 0 -40 -4 -22 -4 -40 0
-40 11 0 7 -34 -5 -42 -6 -5 -4 -8 5 -8 13 0 13 -1 0 -10 -13 -9 -13 -11 0
-20 8 -5 10 -10 4 -10 -8 0 -9 -11 -4 -35 5 -24 4 -35 -4 -35 -7 0 -6 -4 3 -9
11 -7 11 -9 0 -14 -12 -4 -11 -7 1 -16 8 -6 10 -11 4 -11 -8 0 -9 -11 -4 -35
5 -24 4 -35 -4 -35 -7 0 -6 -4 3 -9 11 -7 11 -9 0 -14 -12 -4 -11 -7 1 -16 17
-12 209 -15 211 -3 6 35 4 541 -2 553 -7 13 -17 15 -46 10 -21 -4 -52 -4 -70
0 -18 3 -36 2 -42 -4 -8 -8 -11 -7 -11 1 0 7 -4 12 -10 12 -5 0 -10 -5 -10
-11z"/>
<path d="M458 520 c-9 -11 -12 -41 -8 -105 l5 -90 105 0 105 0 1 90 c0 50 -3
97 -7 105 -11 21 -183 21 -201 0z"/>
</g>
</svg>
